<?xml version="1.0" standalone="no"?>
<!DOCTYPE svg PUBLIC "-//W3C//DTD SVG 1.0//EN" "http://www.w3.org/TR/2001/REC-SVG-20010904/DTD/svg10.dtd">
<svg xmlns="http://www.w3.org/2000/svg" xmlns:xlink="http://www.w3.org/1999/xlink" id="body_1" width="800" height="800">

<g transform="matrix(1.5625 0 0 1.5625 0 0)">
    <path d="M512 256C 512 326.69244 487.00647 387.03223 437.01935 437.01935C 387.03223 487.00647 326.69244 512 256 512C 185.30756 512 124.96779 487.00647 74.98067 437.01935C 24.993557 387.03223 0 326.69244 0 256C 0 185.30756 24.993557 124.96779 74.98067 74.98067C 124.96779 24.993557 185.30756 0 256 0C 326.69244 0 387.03223 24.993557 437.01935 74.98067C 487.00647 124.96779 512 185.30756 512 256C 512 258.979 511.94803 261.9571 511.84406 264.93427" stroke="none" fill="#F0F0F0" fill-rule="nonzero" />
    <path d="M52.92 100.142C 32.810997 126.305 17.647999 156.45999 8.818996 189.219L8.818996 189.219L141.997 189.219L52.92 100.142zM503.18097 189.219C 494.35196 156.461 479.18796 126.306 459.07996 100.143L459.07996 100.143L370.00494 189.219L503.18094 189.219zM8.819 322.784C 17.649 355.542 32.812 385.697 52.920002 411.859L52.920002 411.859L141.994 322.784L8.819 322.784zM411.858 52.921C 385.695 32.812004 355.54102 17.649002 322.782 8.819L322.782 8.819L322.782 141.996L411.858 52.921005zM100.142 459.079C 126.305 479.18802 156.45999 494.351 189.21799 503.181L189.21799 503.181L189.21799 370.005L100.14199 459.079zM189.217 8.819C 156.459 17.649 126.304 32.812 100.142 52.920002L100.142 52.920002L189.217 141.995L189.217 8.819zM322.783 503.181C 355.541 494.351 385.69598 479.188 411.85797 459.08L411.85797 459.08L322.78296 370.005L322.78296 503.181zM370.005 322.784L459.08002 411.86C 479.18802 385.698 494.35202 355.542 503.18103 322.784L503.18103 322.784L370.005 322.784z" stroke="none" fill="#0052B4" fill-rule="nonzero" />
    <path d="M509.833 222.609L289.393 222.609L289.392 222.609L289.392 2.167C 278.461 0.744 267.317 0 256 0C 244.83453 0.0005187988 233.6809 0.72436523 222.60901 2.167L222.60901 2.167L222.60901 222.60701L222.60901 222.60802L2.167 222.60802C 0.744 233.539 0 244.683 0 256C 0.0005187988 267.16547 0.72436523 278.3191 2.167 289.391L2.167 289.391L222.60701 289.391L222.60802 289.391L222.60802 509.833C 233.539 511.256 244.681 512 256 512C 267.16547 511.99997 278.31918 511.27612 289.391 509.833L289.391 509.833L289.391 289.393L289.391 289.392L509.833 289.392C 511.256 278.461 512 267.319 512 256C 511.99948 244.83453 511.27563 233.6809 509.833 222.60901L509.833 222.60901L509.833 222.609zM322.78302 322.784L437.019 437.02C 442.273 431.76797 447.285 426.27698 452.06702 420.585L452.06702 420.585L354.265 322.783L322.78302 322.783L322.78302 322.784zM189.21703 322.784L189.21503 322.784L74.98 437.019C 80.232 442.273 85.72301 447.285 91.415 452.06702L91.415 452.06702L189.21701 354.263L189.21701 322.784zM189.21703 189.219L189.21703 189.217L74.981 74.98C 69.727005 80.232 64.715004 85.72301 59.933002 91.415L59.933002 91.415L157.73601 189.218L189.21701 189.218zM322.78302 189.219L437.02 74.981C 431.76797 69.727005 426.27698 64.715004 420.585 59.934002L420.585 59.934002L322.783 157.737L322.783 189.219z" stroke="none" fill="#D80027" fill-rule="nonzero" />
</g>
</svg>